<?xml version="1.0" encoding="UTF-8" standalone="no"?>
<!-- Created with Inkscape (http://www.inkscape.org/) -->

<svg
   xmlns:dc="http://purl.org/dc/elements/1.1/"
   xmlns:cc="http://creativecommons.org/ns#"
   xmlns:rdf="http://www.w3.org/1999/02/22-rdf-syntax-ns#"
   xmlns:svg="http://www.w3.org/2000/svg"
   xmlns="http://www.w3.org/2000/svg"
   xmlns:sodipodi="http://sodipodi.sourceforge.net/DTD/sodipodi-0.dtd"
   xmlns:inkscape="http://www.inkscape.org/namespaces/inkscape"
   width="16"
   height="16"
   viewBox="0 0 4.2333332 4.2333335"
   version="1.1"
   id="svg1810"
   inkscape:version="0.92.2 (5c3e80d, 2017-08-06)"
   sodipodi:docname="player1.svg"
   inkscape:export-filename="D:\Python\MyCode\games\super-smosh\resources\graphics\svg\player1.png"
   inkscape:export-xdpi="713.81"
   inkscape:export-ydpi="713.81">
  <defs
     id="defs1804" />
  <sodipodi:namedview
     id="base"
     pagecolor="#ffffff"
     bordercolor="#000000"
     borderopacity="1"
     inkscape:pageopacity="0"
     inkscape:pageshadow="2"
     inkscape:zoom="31.678384"
     inkscape:cx="0.24266491"
     inkscape:cy="8.0095816"
     inkscape:document-units="mm"
     inkscape:current-layer="layer1"
     showgrid="true"
     units="px"
     inkscape:window-width="1920"
     inkscape:window-height="1001"
     inkscape:window-x="-9"
     inkscape:window-y="-9"
     inkscape:window-maximized="1"
     showborder="true"
     inkscape:showpageshadow="false"
     inkscape:pagecheckerboard="false">
    <inkscape:grid
       type="xygrid"
       id="grid2355"
       dotted="true"
       empspacing="1" />
  </sodipodi:namedview>
  <metadata
     id="metadata1807">
    <rdf:RDF>
      <cc:Work
         rdf:about="">
        <dc:format>image/svg+xml</dc:format>
        <dc:type
           rdf:resource="http://purl.org/dc/dcmitype/StillImage" />
        <dc:title></dc:title>
      </cc:Work>
    </rdf:RDF>
  </metadata>
  <g
     inkscape:label="Layer 1"
     inkscape:groupmode="layer"
     id="layer1"
     transform="translate(0,-292.76665)">
    <path
       style="fill:#a02c2c;fill-opacity:1;stroke-width:3.36500001;stroke-linecap:round;stroke-linejoin:bevel;stroke-miterlimit:4;stroke-dasharray:none"
       id="path826"
       d="m 0.37271102,294.45747 c 0.11635734,-0.0663 0.22416484,-0.14573 0.33088551,-0.22625 0.027089,-0.0214 0.054373,-0.0426 0.081269,-0.0643 0.08535,-0.0688 0.098534,-0.0816 0.1849781,-0.15272 0.11111327,-0.0914 0.22352097,-0.18114 0.33591557,-0.27092 0.1120348,-0.0892 0.2286659,-0.17239 0.3481953,-0.25119 0.035502,-0.0234 0.070651,-0.0474 0.1073867,-0.0689 0.6703758,-0.39083 0.4672488,-0.29002 0.8059706,-0.45286 0.1049776,-0.0492 0.2118015,-0.0945 0.3241349,-0.124 0.034998,-0.009 0.072011,-0.0161 0.1075525,-0.0231 0.032871,-0.006 0.06606,-0.01 0.099317,-0.0124 0,0 -0.652586,0.48016 -0.652586,0.48016 v 0 c -0.024845,6.2e-4 -0.04969,0.002 -0.074309,0.005 -0.1264601,0.0195 -0.2460969,0.0653 -0.3618758,0.11882 -0.2571264,0.1245 -0.1466954,0.0741 0.3938554,-0.24082 0.03939,-0.0229 -0.078504,0.0464 -0.1171598,0.0705 -0.076336,0.0477 -0.1658951,0.10743 -0.2388609,0.16 -0.039372,0.0284 -0.077665,0.0582 -0.1164969,0.0873 -0.1045603,0.0846 -0.2079858,0.17017 -0.3096623,0.25821 -0.2137663,0.18509 0.034916,-0.0295 -0.1636112,0.14544 -0.023643,0.0208 -0.047864,0.041 -0.071797,0.0615 -0.080424,0.0688 -0.1631826,0.13483 -0.2464692,0.20011 0,0 -0.76663214,0.29996 -0.76663214,0.29996 z"
       inkscape:connector-curvature="0" />
    <path
       style="fill:#a02c2c;fill-opacity:1;stroke-width:3.36500001;stroke-linecap:round;stroke-linejoin:bevel;stroke-miterlimit:4;stroke-dasharray:none"
       id="path828"
       d="m 3.1678358,292.90278 c -0.00249,0.0101 -0.00606,0.0199 -0.0075,0.0302 -0.00551,0.0392 -0.00319,0.0631 4.762e-4,0.10344 0.00731,0.0804 0.022061,0.15905 0.037317,0.23825 0.037501,0.17813 0.093135,0.35152 0.1479968,0.52484 0.032255,0.0978 0.071732,0.19301 0.124655,0.28139 0.01,0.0173 0.023125,0.0324 0.036237,0.0474 0,0 -0.7066328,0.4168 -0.7066328,0.4168 v 0 c -0.013828,-0.0228 -0.024892,-0.0465 -0.030351,-0.0729 -0.025171,-0.10585 -0.048861,-0.21208 -0.076233,-0.3174 -0.044321,-0.1776 -0.091543,-0.35446 -0.1445187,-0.5297 -0.029003,-0.0969 -0.019744,-0.0672 -0.048784,-0.15981 -0.017026,-0.0543 -0.033265,-0.10934 -0.053496,-0.16258 -0.00346,-0.009 -0.00766,-0.0179 -0.011497,-0.0269 0,0 0.7323316,-0.37315 0.7323316,-0.37315 z"
       inkscape:connector-curvature="0" />
    <path
       style="fill:#a02c2c;fill-opacity:1;stroke-width:3.36500001;stroke-linecap:round;stroke-linejoin:bevel;stroke-miterlimit:4;stroke-dasharray:none"
       id="path830"
       d="m 1.4984434,293.94396 c 0.00477,0.005 0.00885,0.0101 0.014324,0.0138 0.00708,0.005 0.015237,0.008 0.022919,0.0117 0.044541,0.0222 0.040388,0.0204 0.091847,0.0406 0.076852,0.0303 0.056928,0.0224 0.1390307,0.048 0.026665,0.007 0.053336,0.0138 0.079996,0.0208 0.028664,0.007 0.057126,0.0157 0.085976,0.0224 0.1132865,0.0263 0.2287142,0.0444 0.3436321,0.0618 0.074538,0.01 0.1494772,0.0166 0.2245773,0.0204 0.022625,10e-4 0.04531,10e-4 0.067909,0.003 0.045297,0.003 0.090375,0.009 0.1355864,0.0131 0.092947,0.005 0.1870604,0.0188 0.280288,0.01 0.02972,-0.003 0.097029,-0.0167 0.1270399,-0.0225 0.073529,-0.0187 0.1479783,-0.0439 0.2111108,-0.0871 0.2420567,-0.14754 0.022775,-0.0137 -0.6685045,0.38358 0,0 0.76321,-0.29334 0.76321,-0.29334 v 0 c -0.717722,0.41269 -0.4620019,0.29949 -0.7281971,0.41664 -0.06268,0.0205 -0.1266221,0.035 -0.1925619,0.0406 -0.055324,0.005 -0.06686,0.007 -0.1242999,0.008 -0.095512,8.7e-4 -0.1906701,-0.009 -0.2859234,-0.0147 -0.1402987,-0.0115 -0.2811292,-0.0208 -0.4191863,-0.0501 -0.1726942,-0.0336 -0.3445324,-0.0712 -0.5161923,-0.10968 -0.056736,-0.0143 -0.099216,-0.0253 -0.15594467,-0.0381 -0.219166,-0.0496 0.066054,0.0159 -0.1210941,-0.0248 -0.01304,-0.003 -0.025752,-0.007 -0.038836,-0.01 -0.00715,-10e-4 -0.014486,-0.002 -0.021729,-0.002 0,0 0.68502217,-0.46108 0.68502217,-0.46108 z"
       inkscape:connector-curvature="0" />
    <path
       style="fill:#55d400;fill-opacity:1;stroke-width:3.36500001;stroke-linecap:round;stroke-linejoin:bevel;stroke-miterlimit:4;stroke-dasharray:none"
       id="path836"
       d="m 2.38125,294.61873 c -0.026846,0.12972 -0.031691,0.26303 -0.037806,0.395 -0.00636,0.19106 -0.012488,0.38214 -0.022914,0.57302 -0.00494,0.0954 -0.00699,0.19107 -4.736e-4,0.28644 0,0 -0.7192316,0.36021 -0.7192316,0.36021 v 0 c 0.019629,-0.10543 0.040129,-0.2107 0.056385,-0.31673 0.00884,-0.0637 0.016484,-0.11336 0.022214,-0.17782 0.011568,-0.13014 0.016106,-0.2615 0.010263,-0.39201 -0.00385,-0.0792 -0.00808,-0.15806 -0.016788,-0.23692 -0.00427,-0.0386 -0.00627,-0.0581 -0.014248,-0.0943 -0.00187,-0.009 -0.00451,-0.0168 -0.00677,-0.0252 0,0 0.7293684,-0.37163 0.7293684,-0.37163 z"
       inkscape:connector-curvature="0" />
    <path
       style="fill:#55d400;fill-opacity:1;stroke-width:3.36500001;stroke-linecap:round;stroke-linejoin:bevel;stroke-miterlimit:4;stroke-dasharray:none"
       id="path838"
       d="m 0.33095016,296.05274 c 0.24136345,-0.13622 0.48092937,-0.27567 0.72409014,-0.40866 0.0099,-0.005 0.022322,-0.003 0.033381,-0.006 0.016077,-0.003 0.031998,-0.007 0.047996,-0.0109 0.021805,-0.004 0.043691,-0.007 0.065416,-0.0111 0.081237,-0.0155 0.090371,-0.0192 0.1745943,-0.0406 0.227761,-0.0565 0.4496013,-0.13484 0.6678096,-0.2207 0.055362,-0.0218 0.1101517,-0.045 0.1652276,-0.0675 0.054804,-0.0236 0.1096576,-0.047 0.1644134,-0.0707 0.053122,-0.023 0.1064012,-0.0456 0.1592187,-0.0693 0.1801283,-0.0807 0.3569906,-0.16892 0.5332428,-0.25771 0.150046,-0.0734 0.2951946,-0.15677 0.4475983,-0.22527 0.0132,-0.005 0.026138,-0.0109 0.039604,-0.0152 0.011372,-0.004 0.023204,-0.006 0.034773,-0.009 0.03841,-0.01 0.076582,-0.0186 0.1160219,-0.023 0.035368,-0.004 0.070967,-0.005 0.1060165,-0.0109 0,0 -0.6505493,0.48321 -0.6505493,0.48321 v 0 c -0.032632,0.001 -0.065243,0.004 -0.097186,0.0114 -0.055361,0.0136 -0.111165,0.0261 -0.163362,0.0499 -0.1278117,0.0543 -0.2525141,0.1157 -0.3785201,0.174 -0.1177619,0.0548 -0.2353552,0.10995 -0.354169,0.16241 -0.1227864,0.0542 -0.1680473,0.0723 -0.2937102,0.12487 -0.054049,0.0226 -0.1080897,0.0452 -0.1621347,0.0678 -0.166823,0.0682 -0.3336104,0.13696 -0.5024706,0.19999 -0.1158788,0.0433 -0.1647894,0.0589 -0.27993824,0.0955 -0.040622,0.0129 -0.081372,0.0255 -0.122058,0.0382 -0.093414,0.0279 -0.18795379,0.0533 -0.28006001,0.0854 -0.27452746,0.0956 -0.63980088,0.36819 0.57138715,-0.3469 0,0 -0.76663235,0.29996 -0.76663235,0.29996 z"
       inkscape:connector-curvature="0" />
    <path
       style="fill:#55d400;fill-opacity:1;stroke-width:3.36500001;stroke-linecap:round;stroke-linejoin:bevel;stroke-miterlimit:4;stroke-dasharray:none"
       id="path840"
       d="m 2.4835289,295.8257 c 0.03217,0.0659 0.079004,0.12396 0.1275577,0.17845 0.049983,0.0515 0.096634,0.10644 0.1522182,0.15204 0.00688,0.006 0.013933,0.0115 0.020651,0.0176 0.00653,0.006 0.012568,0.0123 0.019087,0.0182 0.011896,0.0108 0.02409,0.0212 0.036464,0.0314 0.00568,0.005 0.011975,0.009 0.01742,0.0136 0.00643,0.006 0.01207,0.0125 0.018106,0.0188 0.020558,0.0201 0.038221,0.0434 0.061007,0.0612 5.027e-4,4e-4 0.02494,0.0167 0.025813,0.0173 0.012163,0.008 0.022527,0.0177 0.034727,0.0256 0,0 -0.6928195,0.43763 -0.6928195,0.43763 v 0 c -0.011315,-0.01 -0.023251,-0.0186 -0.034224,-0.0288 -0.029464,-0.0279 -0.055867,-0.0588 -0.083082,-0.0888 -0.037218,-0.0323 -0.072942,-0.0665 -0.1063275,-0.10279 -0.049141,-0.054 -0.094955,-0.11074 -0.1421839,-0.16637 -0.046388,-0.0537 -0.011365,-0.0141 -0.060271,-0.0669 -0.029577,-0.0319 -0.056947,-0.0677 -0.096926,-0.0873 0,0 0.702783,-0.43066 0.702783,-0.43066 z"
       inkscape:connector-curvature="0" />
    <path
       style="fill:#55d400;fill-opacity:1;stroke-width:3.36500001;stroke-linecap:round;stroke-linejoin:bevel;stroke-miterlimit:4;stroke-dasharray:none"
       id="path844"
       d="m 2.3084198,295.80325 c -0.0041,0.003 -0.00853,0.006 -0.012293,0.009 -0.023021,0.0216 -0.040109,0.0512 -0.056724,0.0775 -0.019567,0.031 -0.038334,0.0624 -0.05764,0.0935 -0.078395,0.13019 -0.1749349,0.24721 -0.2753026,0.36074 -0.070805,0.0801 -0.1470967,0.15472 -0.2327014,0.21878 -0.2523782,0.16824 -0.058573,0.0399 -0.73643887,0.42774 -0.014999,0.009 -0.031716,0.0123 -0.047754,0.0181 -0.035927,0.013 2.963e-4,0.002 -0.032617,0.0115 -0.00456,8.2e-4 -0.00912,0.002 -0.013681,0.002 0,0 0.65063947,-0.50229 0.65063947,-0.50229 v 0 c 0.00307,-10e-4 0.00613,-0.003 0.0092,-0.004 0.013585,-0.006 0.02699,-0.0112 0.040037,-0.0184 0.00626,-0.003 0.02483,-0.0142 0.018641,-0.0106 -0.64744507,0.37546 -0.87886187,0.50763 -0.62548957,0.36283 0.10466007,-0.0578 0.19503797,-0.13031 0.27884007,-0.21572 0.097252,-0.10273 0.1919996,-0.21011 0.2601529,-0.33495 0.027546,-0.0561 0.057423,-0.11188 0.07239,-0.17301 0,0 0.7607423,-0.32322 0.7607423,-0.32322 z"
       inkscape:connector-curvature="0" />
  </g>
</svg>
